<svg width="29" height="16" viewBox="0 0 29 16" fill="none" xmlns="http://www.w3.org/2000/svg">
<path d="M17.0306 5.35268C16.5832 4.75927 16.0212 4.26577 15.3793 3.90269C14.7375 3.53961 14.0295 3.31466 13.2991 3.24175C12.5687 3.16883 11.8314 3.2495 11.1327 3.47877C10.4341 3.70803 9.78893 4.08103 9.23719 4.57469L8.76053 4.20515C5.48585 1.85175 0.900357 3.8502 0.471361 7.88112C0.340858 9.82309 0.307448 11.7706 0.371262 13.716C0.360734 13.9656 0.40062 14.2148 0.488442 14.4481C0.576265 14.6814 0.71015 14.8937 0.881788 15.072C1.05343 15.2503 1.25915 15.3907 1.4862 15.4845C1.71325 15.5782 1.95677 15.6234 2.20165 15.6172C2.44131 15.6161 2.67828 15.5657 2.89833 15.4688C3.11838 15.372 3.31697 15.2307 3.48215 15.0536C3.64733 14.8765 3.77571 14.6671 3.85955 14.4381C3.9434 14.209 3.98099 13.9651 3.97007 13.7209C3.97007 12.3205 3.97007 10.9201 3.97007 9.51489C3.96621 9.0983 3.9949 8.68206 4.05587 8.27012C4.13275 7.84849 4.36328 7.4722 4.70108 7.21691C5.03889 6.96162 5.45893 6.84627 5.87672 6.89406C6.28512 6.92547 6.66826 7.10775 6.95433 7.40673C7.2404 7.70571 7.40975 8.10086 7.43064 8.5181C7.45447 9.03351 7.43064 9.54893 7.43064 10.0643C7.43064 11.3188 7.43064 12.5733 7.43064 13.8278C7.42574 14.1917 7.53183 14.5481 7.73422 14.8478C7.93661 15.1475 8.22529 15.3755 8.56033 15.5005C9.77582 16.0159 11.0151 15.1115 11.039 13.6868C11.039 12.0288 11.039 10.3707 11.0866 8.71259C11.1027 8.31178 11.2228 7.92249 11.4346 7.58452C11.6363 7.2865 11.9286 7.06453 12.2663 6.95292C12.6041 6.8413 12.9684 6.84625 13.3031 6.96699C13.6807 7.07493 14.0107 7.31116 14.2387 7.63656C14.4667 7.96196 14.5789 8.35703 14.5567 8.75636C14.5567 10.4339 14.5567 12.1114 14.5567 13.7889C14.5567 14.0297 14.6032 14.268 14.6935 14.4904C14.7838 14.7129 14.9162 14.9149 15.0831 15.0852C15.2499 15.2554 15.4481 15.3904 15.6661 15.4825C15.8841 15.5746 16.1178 15.6221 16.3538 15.6221C16.5898 15.6221 16.8234 15.5746 17.0415 15.4825C17.2595 15.3904 17.4576 15.2554 17.6244 15.0852C17.7913 14.9149 17.9237 14.7129 18.014 14.4904C18.1043 14.268 18.1508 14.0297 18.1508 13.7889C18.1508 12.0725 18.1508 10.3853 18.1508 8.64452C18.154 7.44943 17.7591 6.28868 17.0306 5.35268" fill="#7D7D7D"/>
<path d="M26.0349 6.32487L25.4676 6.08661C26.0301 5.63927 26.564 5.25514 27.0406 4.81752C27.4641 4.4774 27.8297 4.06832 28.1227 3.60679C28.9806 1.97302 27.7699 0.0718221 25.849 0.0280605C24.0758 0.00374847 22.3074 0.00374847 20.5342 0.00374847C20.317 -0.0115626 20.0991 0.0201443 19.8947 0.0967889C19.6904 0.173434 19.5042 0.293284 19.3485 0.448477C19.1928 0.60367 19.071 0.790699 18.9911 0.997294C18.9112 1.20389 18.875 1.42538 18.8849 1.64724C18.8637 1.87321 18.8909 2.10119 18.9646 2.31537C19.0384 2.52956 19.1569 2.72483 19.312 2.88764C19.467 3.05046 19.655 3.17692 19.8627 3.25828C20.0705 3.33964 20.2931 3.37394 20.5151 3.3588C21.3826 3.3588 22.2502 3.3588 23.1177 3.3588C23.2655 3.40743 23.418 3.40743 23.704 3.40743C22.5266 4.37991 21.4398 5.30376 20.3673 6.21789C19.6762 6.80138 19.4665 7.43836 19.7096 8.16285C19.8387 8.52047 20.0793 8.82497 20.3944 9.02963C20.7096 9.23429 21.0819 9.3278 21.4541 9.29579C22.3741 9.29579 23.2988 9.29579 24.2188 9.29579C24.4251 9.25688 24.6373 9.26476 24.8403 9.31886C25.0433 9.37297 25.2321 9.47198 25.3934 9.60888C25.5547 9.74577 25.6845 9.91719 25.7735 10.111C25.8626 10.3048 25.9088 10.5162 25.9088 10.7302C25.9088 10.9442 25.8626 11.1556 25.7735 11.3494C25.6845 11.5432 25.5547 11.7146 25.3934 11.8515C25.2321 11.9884 25.0433 12.0874 24.8403 12.1415C24.6373 12.1956 24.4251 12.2035 24.2188 12.1646C23.0271 12.1646 21.8355 12.1646 20.6438 12.1646C20.2261 12.1876 19.8329 12.3731 19.5452 12.6829C19.2575 12.9927 19.0971 13.4032 19.0971 13.83C19.0971 14.2567 19.2575 14.6672 19.5452 14.977C19.8329 15.2868 20.2261 15.4723 20.6438 15.4954C21.8879 15.4954 23.1368 15.4954 24.3808 15.4954C25.4737 15.4671 26.5238 15.0565 27.3552 14.3323C28.1866 13.6082 28.7487 12.6145 28.9473 11.5179C29.1056 10.4443 28.9042 9.34753 28.3757 8.40513C27.8472 7.46273 27.0224 6.72978 26.0349 6.32487" fill="#7D7D7D"/>
</svg>
