<svg width="32" height="25" viewBox="0 0 32 25" fill="none" xmlns="http://www.w3.org/2000/svg">
<path d="M26.8278 21.0547C26.8278 21.4342 26.5722 21.7076 26.2056 21.7076C25.8278 21.7076 25.5833 21.4174 25.5833 21.0547C25.5833 20.692 25.8278 20.4018 26.2056 20.4018C26.5722 20.4018 26.8278 20.692 26.8278 21.0547ZM9.56111 20.4018C9.16667 20.4018 8.93889 20.692 8.93889 21.0547C8.93889 21.4174 9.16667 21.7076 9.56111 21.7076C9.92222 21.7076 10.1667 21.4342 10.1667 21.0547C10.1611 20.692 9.92222 20.4018 9.56111 20.4018ZM16.0889 20.385C15.7889 20.385 15.6056 20.5804 15.5611 20.8705H16.6222C16.5722 20.5525 16.3778 20.385 16.0889 20.385ZM22.0778 20.4018C21.7 20.4018 21.4722 20.692 21.4722 21.0547C21.4722 21.4174 21.7 21.7076 22.0778 21.7076C22.4556 21.7076 22.7 21.4342 22.7 21.0547C22.7 20.692 22.4556 20.4018 22.0778 20.4018ZM27.9611 21.8583C27.9611 21.875 27.9778 21.8862 27.9778 21.9196C27.9778 21.9364 27.9611 21.9475 27.9611 21.981C27.9444 21.9978 27.9444 22.0089 27.9333 22.0257C27.9167 22.0424 27.9056 22.0536 27.8722 22.0536C27.8556 22.0703 27.8444 22.0703 27.8111 22.0703C27.7944 22.0703 27.7833 22.0703 27.75 22.0536C27.7333 22.0536 27.7222 22.0368 27.7056 22.0257C27.6889 22.0089 27.6778 21.9978 27.6778 21.981C27.6611 21.9531 27.6611 21.9364 27.6611 21.9196C27.6611 21.8917 27.6611 21.875 27.6778 21.8583C27.6778 21.8304 27.6944 21.8136 27.7056 21.7969C27.7222 21.7801 27.7333 21.7801 27.75 21.769C27.7778 21.7522 27.7944 21.7522 27.8111 21.7522C27.8389 21.7522 27.8556 21.7522 27.8722 21.769C27.9 21.7857 27.9167 21.7857 27.9333 21.7969C27.95 21.808 27.9444 21.8304 27.9611 21.8583ZM27.8389 21.9364C27.8667 21.9364 27.8667 21.9196 27.8833 21.9196C27.9 21.9029 27.9 21.8917 27.9 21.875C27.9 21.8583 27.9 21.8471 27.8833 21.8304C27.8667 21.8304 27.8556 21.8136 27.8222 21.8136H27.7333V22.0089H27.7778V21.9308H27.7944L27.8556 22.0089H27.9L27.8389 21.9364ZM32 2.67857V22.3214C32 23.8002 30.8056 25 29.3333 25H2.66667C1.19444 25 0 23.8002 0 22.3214V2.67857C0 1.19978 1.19444 0 2.66667 0H29.3333C30.8056 0 32 1.19978 32 2.67857ZM3.55556 10.4688C3.55556 14.7377 7.00556 18.1975 11.25 18.1975C12.7611 18.1975 14.2444 17.74 15.5 16.9085C11.45 13.5993 11.4778 7.35491 15.5 4.04576C14.2444 3.20871 12.7611 2.7567 11.25 2.7567C7.00556 2.75112 3.55556 6.21652 3.55556 10.4688ZM16 16.5402C19.9167 13.471 19.9 7.48884 16 4.4029C12.1 7.48884 12.0833 13.4766 16 16.5402ZM8.09444 20.798C8.09444 20.3125 7.77778 19.9944 7.27778 19.9777C7.02222 19.9777 6.75 20.0558 6.56667 20.3404C6.43333 20.1116 6.20556 19.9777 5.88889 19.9777C5.67778 19.9777 5.46667 20.0558 5.3 20.279V20.0335H4.84444V22.0815H5.3C5.3 21.0268 5.16111 20.3962 5.8 20.3962C6.36667 20.3962 6.25556 20.9654 6.25556 22.0815H6.69444C6.69444 21.0603 6.55556 20.3962 7.19444 20.3962C7.76111 20.3962 7.65 20.9542 7.65 22.0815H8.10556V20.798H8.09444ZM10.5889 20.0335H10.15V20.279C10 20.0949 9.78889 19.9777 9.5 19.9777C8.92778 19.9777 8.48889 20.4353 8.48889 21.0547C8.48889 21.6797 8.92778 22.1317 9.5 22.1317C9.78889 22.1317 10 22.0257 10.15 21.8304V22.0871H10.5889V20.0335ZM12.8389 21.4621C12.8389 20.625 11.5667 21.0045 11.5667 20.6138C11.5667 20.2958 12.2278 20.346 12.5944 20.5525L12.7778 20.1897C12.2556 19.8493 11.1 19.8549 11.1 20.6473C11.1 21.4453 12.3722 21.1105 12.3722 21.4844C12.3722 21.8359 11.6222 21.808 11.2222 21.529L11.0278 21.8806C11.65 22.3047 12.8389 22.2154 12.8389 21.4621ZM14.8056 21.981L14.6833 21.6016C14.4722 21.7188 14.0056 21.8471 14.0056 21.3728V20.4464H14.7333V20.0335H14.0056V19.4085H13.55V20.0335H13.1278V20.4408H13.55V21.3728C13.55 22.3549 14.5111 22.1763 14.8056 21.981ZM15.5444 21.2333H17.0722C17.0722 20.3292 16.6611 19.9721 16.1056 19.9721C15.5167 19.9721 15.0944 20.4129 15.0944 21.0491C15.0944 22.1931 16.35 22.3828 16.9722 21.8415L16.7611 21.5067C16.3278 21.8638 15.6722 21.8304 15.5444 21.2333ZM18.8278 20.0335C18.5722 19.9219 18.1833 19.933 17.9833 20.279V20.0335H17.5278V22.0815H17.9833V20.9263C17.9833 20.279 18.5111 20.3627 18.6944 20.4576L18.8278 20.0335ZM19.4167 21.0547C19.4167 20.4185 20.0611 20.2121 20.5667 20.5859L20.7778 20.2232C20.1333 19.7154 18.9611 19.9944 18.9611 21.0603C18.9611 22.1652 20.2056 22.3884 20.7778 21.8973L20.5667 21.5346C20.0556 21.8973 19.4167 21.6797 19.4167 21.0547ZM23.1222 20.0335H22.6667V20.279C22.2056 19.6652 21.0056 20.0112 21.0056 21.0547C21.0056 22.1261 22.25 22.433 22.6667 21.8304V22.0871H23.1222V20.0335ZM24.9944 20.0335C24.8611 19.9665 24.3833 19.8717 24.15 20.279V20.0335H23.7111V22.0815H24.15V20.9263C24.15 20.3125 24.65 20.3516 24.8611 20.4576L24.9944 20.0335ZM27.2333 19.202H26.7944V20.279C26.3389 19.6708 25.1333 19.9944 25.1333 21.0547C25.1333 22.1373 26.3833 22.4275 26.7944 21.8304V22.0871H27.2333V19.202ZM27.6556 15.0112V15.2679H27.7V15.0112H27.8056V14.9665H27.55V15.0112H27.6556ZM28.0222 21.9196C28.0222 21.8917 28.0222 21.8583 28.0056 21.8304C27.9889 21.8136 27.9778 21.7857 27.9611 21.769C27.9444 21.7522 27.9167 21.7411 27.9 21.7243C27.8722 21.7243 27.8389 21.7076 27.8111 21.7076C27.7944 21.7076 27.7667 21.7243 27.7333 21.7243C27.7056 21.7411 27.6889 21.7522 27.6722 21.769C27.6444 21.7857 27.6278 21.8136 27.6278 21.8304C27.6111 21.8583 27.6111 21.8917 27.6111 21.9196C27.6111 21.9364 27.6111 21.9643 27.6278 21.9978C27.6278 22.0145 27.6444 22.0424 27.6722 22.0592C27.6889 22.0759 27.7 22.0871 27.7333 22.1038C27.7611 22.1205 27.7944 22.1205 27.8111 22.1205C27.8389 22.1205 27.8722 22.1205 27.9 22.1038C27.9167 22.0871 27.9444 22.0759 27.9611 22.0592C27.9778 22.0424 27.9889 22.0145 28.0056 21.9978C28.0222 21.9643 28.0222 21.9364 28.0222 21.9196ZM28.2 14.9609H28.1222L28.0333 15.1562L27.9444 14.9609H27.8667V15.2623H27.9111V15.0335L28 15.2288H28.0611L28.1389 15.0335V15.2623H28.2V14.9609ZM28.4444 10.4688C28.4444 6.21652 24.9944 2.75112 20.75 2.75112C19.2389 2.75112 17.7556 3.20871 16.5 4.04018C20.5056 7.34933 20.5667 13.6105 16.5 16.9029C17.7556 17.74 19.25 18.192 20.75 18.192C24.9944 18.1975 28.4444 14.7377 28.4444 10.4688Z" fill="white"/>
</svg>
