<svg width="14" height="16" viewBox="0 0 14 16" fill="none" xmlns="http://www.w3.org/2000/svg">
<path d="M13.2125 12.6185L10.7257 8.60092C10.2108 7.76968 9.63262 6.97929 8.99642 6.23674L8.50005 5.65758V5.00005C8.5 4.65404 8.57983 4.31269 8.7333 4.00258C8.88678 3.69247 9.10976 3.42197 9.38489 3.21214L10.3619 2.72364C10.3952 2.70697 10.4244 2.68305 10.4473 2.65364C10.4702 2.62422 10.4863 2.59005 10.4943 2.55364C10.5023 2.51722 10.502 2.47947 10.4935 2.44317C10.4851 2.40686 10.4686 2.37291 10.4453 2.3438L9.44527 1.0938L9.44508 1.09395C9.42257 1.06565 9.39418 1.04259 9.36186 1.02636L8.36186 0.526361C8.32426 0.507541 8.28252 0.498515 8.24051 0.500121C8.1985 0.501727 8.15757 0.513913 8.12152 0.535548C7.78272 0.738757 7.39511 0.846161 7.00005 0.846298C6.60499 0.846189 6.21738 0.738818 5.87858 0.535642C5.84256 0.513985 5.80165 0.501772 5.75966 0.500133C5.71766 0.498494 5.67593 0.507483 5.63833 0.526267L4.63833 1.02627C4.60601 1.04249 4.57762 1.06556 4.55511 1.09386L4.55483 1.0938L3.55483 2.3438C3.53155 2.37291 3.51507 2.40685 3.5066 2.44315C3.49813 2.47945 3.49789 2.51718 3.50588 2.55358C3.51388 2.58999 3.52991 2.62414 3.55281 2.65355C3.57571 2.68296 3.6049 2.70688 3.63823 2.72355L4.6152 3.21205C4.89035 3.42188 5.11334 3.6924 5.26681 4.00252C5.42029 4.31265 5.50011 4.65402 5.50005 5.00005V5.65758L5.0037 6.23667C4.36749 6.97926 3.78934 7.76969 3.27436 8.60095L0.787547 12.6185C0.762317 12.6592 0.749339 12.7064 0.750159 12.7543C0.750979 12.8022 0.765562 12.8489 0.792172 12.8888C1.01 13.2155 1.31462 13.475 1.6718 13.6381L1.5343 13.8741H1.53455C1.52827 13.8846 1.52278 13.8956 1.51814 13.907C1.4935 13.9686 1.49432 14.0374 1.52043 14.0983C1.54653 14.1593 1.59577 14.2074 1.65733 14.232L1.9502 14.3492C2.47005 14.5579 3.03319 14.6358 3.59017 14.576L3.5063 14.9447C3.49875 14.9779 3.49807 15.0123 3.5043 15.0457C3.51052 15.0792 3.52352 15.1111 3.54249 15.1394C3.56146 15.1676 3.58601 15.1917 3.61463 15.2102C3.64325 15.2286 3.67534 15.241 3.70892 15.2466L4.28183 15.3423C4.91249 15.4471 5.55072 15.4999 6.19005 15.5H7.81005C8.44942 15.4999 9.08769 15.4471 9.71839 15.3422L10.2912 15.2466C10.3248 15.241 10.3569 15.2286 10.3855 15.2102C10.4141 15.1917 10.4387 15.1676 10.4576 15.1394C10.4766 15.1111 10.4896 15.0792 10.4958 15.0457C10.5021 15.0123 10.5014 14.9779 10.4938 14.9447L10.4101 14.5762C10.9671 14.6359 11.5303 14.558 12.0501 14.3494L12.343 14.2322C12.3765 14.219 12.4067 14.1987 12.4316 14.1727C12.4565 14.1467 12.4754 14.1156 12.4871 14.0816C12.4988 14.0475 12.5029 14.0113 12.4992 13.9755C12.4956 13.9397 12.4841 13.9052 12.4658 13.8742H12.466L12.3285 13.6383C12.6857 13.4751 12.9903 13.2156 13.2081 12.8889C13.2347 12.849 13.2493 12.8023 13.2501 12.7543C13.2509 12.7064 13.2378 12.6592 13.2125 12.6185ZM9.50005 2.59555V1.96274L9.86164 2.41477L9.50005 2.59555ZM7.98755 1.15727C7.95005 1.39219 7.83003 1.60605 7.64904 1.76044C7.46805 1.91484 7.23794 1.99965 7.00005 1.99965C6.76215 1.99965 6.53205 1.91484 6.35106 1.76044C6.17006 1.60605 6.05004 1.39219 6.01255 1.15727C6.32684 1.28202 6.6619 1.34616 7.00005 1.3463C7.33819 1.34616 7.67326 1.28202 7.98755 1.15727ZM4.50005 1.96274V2.59555L4.13845 2.41477L4.50005 1.96274ZM5.00005 2.87886V1.40455L5.50761 1.15077C5.5449 1.52067 5.71822 1.86355 5.99398 2.11291C6.26973 2.36227 6.62827 2.50033 7.00005 2.50033C7.37183 2.50033 7.73036 2.36227 8.00612 2.11291C8.28187 1.86355 8.4552 1.52067 8.49249 1.15077L9.00005 1.40455V2.87886C8.719 3.11068 8.48684 3.39605 8.31706 3.71839C8.14728 4.04072 8.04327 4.39359 8.01108 4.75648C7.80985 4.77543 7.61517 4.83799 7.44056 4.9398C7.26596 5.04162 7.11564 5.18025 7.00005 5.34605C6.88446 5.18025 6.73413 5.04162 6.55953 4.9398C6.38493 4.83799 6.19025 4.77543 5.98902 4.75648C5.95682 4.39359 5.85281 4.04072 5.68303 3.71839C5.51325 3.39605 5.28109 3.11068 5.00005 2.87886ZM7.30789 5.82545C7.36361 5.67898 7.45691 5.54977 7.57841 5.4508C7.69991 5.35183 7.84534 5.2866 8.00005 5.26167V5.63874C7.90402 5.7163 7.79286 5.77298 7.67367 5.80513C7.55449 5.83728 7.4299 5.8442 7.30789 5.82545ZM6.00005 5.63874V5.26167C6.15476 5.2866 6.30018 5.35183 6.42168 5.4508C6.54319 5.54977 6.63649 5.67898 6.6922 5.82545C6.57019 5.8442 6.44561 5.83728 6.32642 5.80513C6.20724 5.77297 6.09608 5.7163 6.00005 5.63874ZM2.13577 13.8851L2.11205 13.8757L3.71599 11.1261L3.28411 10.8742L1.92505 13.2036C1.68239 13.1015 1.46837 12.9416 1.30161 12.7378L3.69945 8.8642C4.20089 8.05481 4.76383 7.28517 5.3833 6.56211L5.78095 6.09814C5.84868 6.14389 5.92031 6.18356 5.99502 6.2167L5.30108 8.02067C4.94131 8.95721 4.64896 9.91828 4.42627 10.8965L3.70845 14.055C3.17858 14.1439 2.63443 14.0852 2.13577 13.8851ZM4.36389 14.8491L4.05242 14.7971L4.9137 11.0073C5.13112 10.0524 5.41654 9.11426 5.76777 8.20005L6.48339 6.33974L6.46499 6.33267C6.4952 6.33464 6.52545 6.33602 6.55586 6.33602C6.62084 6.33592 6.68573 6.33127 6.75005 6.32208V15H6.19005C5.57826 14.9999 4.96752 14.9494 4.36402 14.8491H4.36389ZM9.63602 14.8491C9.03253 14.9494 8.42182 14.9999 7.81005 15H7.25005V6.32217C7.31437 6.33134 7.37926 6.33598 7.44424 6.33608C7.47464 6.33608 7.50492 6.3347 7.53511 6.33274L7.5167 6.3398L8.23233 8.20005C8.58351 9.11426 8.86888 10.0524 9.08627 11.0073L9.94755 14.7971L9.63602 14.8491ZM12.4524 12.9801C12.3373 13.0715 12.2103 13.1467 12.0748 13.2037L10.716 10.8741L10.2841 11.126L11.888 13.8756L11.8644 13.885C11.3657 14.0851 10.8215 14.1438 10.2916 14.0549L9.57383 10.8964C9.35113 9.91816 9.05878 8.95708 8.69902 8.02052L8.00508 6.21658C8.07978 6.18344 8.15141 6.14377 8.21914 6.09805L8.61683 6.56208C9.23628 7.2851 9.7992 8.05469 10.3006 8.86405L12.6985 12.7378C12.6254 12.8272 12.5429 12.9084 12.4525 12.9801L12.4524 12.9801Z" fill="black"/>
</svg>
