<svg width="32" height="25" viewBox="0 0 32 25" fill="none" xmlns="http://www.w3.org/2000/svg">
<path d="M26.1167 11.1217C26.1167 11.1217 26.5389 13.1975 26.6333 13.6328H24.7778C24.9611 13.1362 25.6667 11.2054 25.6667 11.2054C25.6556 11.2221 25.85 10.6975 25.9611 10.3739L26.1167 11.1217ZM32 2.67857V22.3214C32 23.8002 30.8056 25 29.3333 25H2.66667C1.19444 25 0 23.8002 0 22.3214V2.67857C0 1.19978 1.19444 0 2.66667 0H29.3333C30.8056 0 32 1.19978 32 2.67857ZM8.47222 16.6964L11.9833 8.03571H9.62222L7.43889 13.9509L7.2 12.7511L6.42222 8.76674C6.29444 8.21429 5.9 8.05804 5.41111 8.03571H1.81667L1.77778 8.20871C2.65556 8.43192 3.43889 8.75558 4.12222 9.16295L6.11111 16.6964H8.47222ZM13.7167 16.7076L15.1167 8.03571H12.8833L11.4889 16.7076H13.7167ZM21.4889 13.8728C21.5 12.885 20.9 12.1317 19.6167 11.5123C18.8333 11.1161 18.3556 10.8482 18.3556 10.4408C18.3667 10.0725 18.7611 9.69308 19.6389 9.69308C20.3667 9.67634 20.9 9.84933 21.3 10.0223L21.5 10.1172L21.8056 8.24219C21.3667 8.0692 20.6667 7.87388 19.8056 7.87388C17.6 7.87388 16.05 9.05692 16.0389 10.7422C16.0222 11.9866 17.15 12.6786 17.9944 13.0971C18.8556 13.5212 19.15 13.8002 19.15 14.1741C19.1389 14.7545 18.45 15.0223 17.8111 15.0223C16.9222 15.0223 16.4444 14.8828 15.7167 14.5592L15.4222 14.4196L15.1111 16.3672C15.6333 16.6071 16.6 16.8192 17.6 16.8304C19.9444 16.8359 21.4722 15.6696 21.4889 13.8728ZM29.3333 16.7076L27.5333 8.03571H25.8056C25.2722 8.03571 24.8667 8.19196 24.6389 8.75558L21.3222 16.7076H23.6667C23.6667 16.7076 24.05 15.6362 24.1333 15.4074H27C27.0667 15.7143 27.2667 16.7076 27.2667 16.7076H29.3333Z" fill="white"/>
</svg>
