<svg width="46" height="16" viewBox="0 0 46 16" fill="none" xmlns="http://www.w3.org/2000/svg">
<path d="M33.3908 5.99083H31.7836V11.4557C31.7836 11.558 31.6952 11.6456 31.592 11.6456H30.3534C30.2502 11.6456 30.1617 11.558 30.1617 11.4557V5.99083H28.5398C28.4956 5.99083 28.4366 5.97622 28.4071 5.94699C28.3776 5.91777 28.3481 5.87394 28.3481 5.81549V4.8511C28.3481 4.80727 28.3629 4.74882 28.4071 4.7196C28.4366 4.69037 28.4956 4.66115 28.5398 4.67576H33.3908C33.494 4.67576 33.5825 4.74882 33.5825 4.8511V5.81549C33.5825 5.91777 33.494 5.99083 33.3908 5.99083Z" fill="#7D7D7D"/>
<path d="M38.5661 11.6017C37.9321 11.6893 37.2833 11.7332 36.6493 11.7186C35.4255 11.7186 34.3491 11.4117 34.3491 9.70213V6.5898C34.3491 4.88021 35.4402 4.58797 36.664 4.58797C37.298 4.57336 37.9321 4.6172 38.5661 4.70487C38.6988 4.71948 38.7578 4.77793 38.7578 4.89482V5.77154C38.7578 5.87382 38.6693 5.96149 38.5661 5.96149H36.5756C36.1332 5.96149 35.971 6.10761 35.971 6.60441V7.4519H38.4923C38.5956 7.4519 38.684 7.53957 38.684 7.64186V8.53318C38.684 8.63547 38.5956 8.72314 38.4923 8.72314H35.971V9.71675C35.971 10.1989 36.1332 10.3597 36.5756 10.3597H38.5661C38.6693 10.3597 38.7578 10.4473 38.7578 10.5496V11.4263C38.7578 11.5286 38.6988 11.5871 38.5661 11.6017Z" fill="#7D7D7D"/>
<path d="M45.7026 11.6455H44.1987C44.0955 11.6601 43.9922 11.6016 43.948 11.4993L42.6357 9.45367L41.4562 11.4555C41.3972 11.5724 41.3235 11.6455 41.2203 11.6455H39.8195C39.79 11.6455 39.7458 11.6455 39.7163 11.6162C39.6868 11.587 39.6721 11.5578 39.6721 11.5139C39.6721 11.4847 39.6868 11.4701 39.6868 11.4555L41.7363 8.06555L39.6573 4.85094C39.6426 4.83632 39.6426 4.8071 39.6426 4.79249C39.6426 4.71943 39.7163 4.66098 39.79 4.67559H41.3382C41.4414 4.67559 41.5151 4.76327 41.5741 4.85094L42.7832 6.75048L43.9628 4.85094C44.007 4.74865 44.0955 4.69021 44.1987 4.67559H45.5994C45.6731 4.67559 45.7468 4.71943 45.7468 4.79249C45.7468 4.8071 45.7321 4.83632 45.7321 4.85094L43.6679 8.09477L45.8206 11.4555C45.8353 11.4847 45.8501 11.5139 45.8501 11.5432C45.8353 11.6016 45.7763 11.6455 45.7026 11.6455Z" fill="#7D7D7D"/>
<path d="M26.0923 4.69067C26.0186 4.69067 25.9596 4.73451 25.9449 4.80757L24.5736 9.84866C24.5589 9.95094 24.5294 9.99478 24.4409 9.99478C24.3524 9.99478 24.323 9.95094 24.3082 9.84866L22.937 4.80757C22.9222 4.73451 22.8632 4.69067 22.7895 4.69067H21.433C21.3888 4.69067 21.3445 4.70529 21.3151 4.74912C21.2856 4.77834 21.2708 4.82218 21.2856 4.86602C21.2856 4.86602 22.9665 10.6523 22.9812 10.7108C23.2024 11.3975 23.7479 11.7336 24.4409 11.7336C25.1044 11.7628 25.7089 11.3391 25.9006 10.7108C25.9301 10.6377 27.5668 4.86602 27.5668 4.86602C27.5815 4.82218 27.5668 4.77834 27.5373 4.74912C27.5078 4.7199 27.4636 4.69067 27.4193 4.69067H26.0923Z" fill="#7D7D7D"/>
<path d="M18.4251 0H4.31453C3.79847 0 3.32664 0.277625 3.07599 0.70137C2.81058 1.13973 2.79584 1.68037 3.03175 2.11872L4.44723 4.77808H1.88167C1.55729 4.77808 1.24766 4.93881 1.07072 5.21644C0.893786 5.49406 0.893786 5.84475 1.04123 6.13699L5.58257 14.6411C5.74476 14.9479 6.06914 15.1379 6.40826 15.1379C6.74739 15.1379 7.07177 14.9479 7.23396 14.6411L8.47251 12.3324L10.0207 15.2402C10.2713 15.7078 10.7727 16 11.3035 16C11.8343 16 12.3356 15.7078 12.5863 15.2402L19.6637 2.04566C19.8996 1.60731 19.8848 1.08128 19.6194 0.672146C19.3835 0.248402 18.9117 0 18.4251 0ZM12.1144 5.56712L9.01806 11.3242C8.91485 11.5288 8.70842 11.6457 8.47251 11.6457C8.23659 11.6457 8.03017 11.5142 7.92696 11.3242L4.87483 5.62557C4.78636 5.45023 4.78636 5.24566 4.88957 5.07032C4.99278 4.89498 5.18446 4.79269 5.37614 4.79269H11.6279C11.8195 4.79269 11.9965 4.88037 12.0849 5.0411C12.2029 5.20183 12.2029 5.40639 12.1144 5.56712Z" fill="#7D7D7D"/>
</svg>
